<svg xmlns="http://www.w3.org/2000/svg" viewBox="0 0 758.52 497.23"><defs><style>.cls-1{isolation:isolate;}.cls-2{fill:#537aa3;}.cls-3{fill:#f2b691;}.cls-4{fill:#fceeb5;}.cls-5,.cls-6,.cls-7{fill:none;stroke-linecap:round;stroke-linejoin:round;}.cls-5,.cls-7{stroke:#243c62;}.cls-5,.cls-6{stroke-width:5px;}.cls-6{stroke:#86a1bf;}.cls-7{stroke-width:7px;}.cls-8{mix-blend-mode:overlay;}.cls-9{fill:#ee786e;}</style></defs><title>Musical Instruments Knolling</title><g class="cls-1"><g id="Layer_1" data-name="Layer 1"><rect class="cls-2" x="283.98" y="177.37" width="86.37" height="78.25" rx="5" ry="5"/><rect class="cls-2" x="283.97" y="177.37" width="86.37" height="78.25" rx="5.8" ry="5.8"/><path class="cls-3" d="M559.76,383.14v8.95a5.8,5.8,0,0,1-5.8,5.8H479.18a5.8,5.8,0,0,1-5.8-5.8v-8.95Z" transform="translate(-189.41 -142.27)"/><path class="cls-4" d="M559.76,334.38v-8.94a5.8,5.8,0,0,0-5.8-5.8H479.18a5.8,5.8,0,0,0-5.8,5.8v8.94Z" transform="translate(-189.41 -142.27)"/><rect class="cls-5" x="283.98" y="177.37" width="86.37" height="78.25" rx="5" ry="5"/><line class="cls-5" x1="281.87" y1="192.12" x2="372.46" y2="192.12"/><line class="cls-5" x1="281.87" y1="240.87" x2="372.46" y2="240.87"/><line class="cls-5" x1="308.2" y1="195.28" x2="308.2" y2="205.81"/><line class="cls-5" x1="346.12" y1="195.28" x2="346.12" y2="205.81"/><line class="cls-5" x1="308.2" y1="227.18" x2="308.2" y2="237.71"/><line class="cls-5" x1="346.12" y1="227.18" x2="346.12" y2="237.71"/><line class="cls-6" x1="292.43" y1="214.86" x2="292.43" y2="229.39"/><line class="cls-6" x1="292.43" y1="201.27" x2="292.43" y2="204.54"/><rect class="cls-2" x="415.1" y="177.37" width="86.37" height="78.25" rx="5" ry="5"/><rect class="cls-2" x="415.09" y="177.37" width="86.37" height="78.25" rx="5.8" ry="5.8"/><path class="cls-3" d="M690.88,383.14v8.95a5.8,5.8,0,0,1-5.8,5.8H610.31a5.81,5.81,0,0,1-5.81-5.8v-8.95Z" transform="translate(-189.41 -142.27)"/><path class="cls-4" d="M690.88,334.38v-8.94a5.8,5.8,0,0,0-5.8-5.8H610.31a5.8,5.8,0,0,0-5.81,5.8v8.94Z" transform="translate(-189.41 -142.27)"/><rect class="cls-5" x="415.1" y="177.37" width="86.37" height="78.25" rx="5" ry="5"/><line class="cls-5" x1="412.99" y1="192.12" x2="503.58" y2="192.12"/><line class="cls-5" x1="412.99" y1="240.87" x2="503.58" y2="240.87"/><line class="cls-5" x1="439.33" y1="195.28" x2="439.33" y2="205.81"/><line class="cls-5" x1="477.25" y1="195.28" x2="477.25" y2="205.81"/><line class="cls-5" x1="439.33" y1="227.18" x2="439.33" y2="237.71"/><line class="cls-5" x1="477.25" y1="227.18" x2="477.25" y2="237.71"/><line class="cls-6" x1="423.56" y1="214.86" x2="423.56" y2="229.39"/><line class="cls-6" x1="423.56" y1="201.27" x2="423.56" y2="204.54"/><line class="cls-7" x1="372.42" y1="216.24" x2="413.03" y2="216.24"/><line class="cls-7" x1="392.73" y1="217.4" x2="392.73" y2="258.02"/><path class="cls-2" d="M384.44,259.18H401a3.9,3.9,0,0,1,3.9,3.9v18.15a0,0,0,0,1,0,0H380.54a0,0,0,0,1,0,0V263.07A3.9,3.9,0,0,1,384.44,259.18Z"/><path class="cls-5" d="M384.44,259.18H401a3.9,3.9,0,0,1,3.9,3.9v18.15a0,0,0,0,1,0,0H380.54a0,0,0,0,1,0,0V263.07A3.9,3.9,0,0,1,384.44,259.18Z"/><polyline class="cls-5" points="640.12 494.73 600.66 456.44 561.21 494.73"/><polyline class="cls-5" points="615.01 470.36 600.66 484.29 586.32 470.36"/><line class="cls-5" x1="600.67" y1="205.8" x2="600.67" y2="490.09"/><path class="cls-3" d="M804,375.91v-2.32a5.8,5.8,0,0,0-5.8-5.8H781.08a5.81,5.81,0,0,0-5.81,5.8v2.32l-50,12.77H854Z" transform="translate(-189.41 -142.27)"/><path class="cls-5" d="M804,375.91v-2.32a5.8,5.8,0,0,0-5.8-5.8H781.08a5.81,5.81,0,0,0-5.81,5.8v2.32l-50,12.77H854Z" transform="translate(-189.41 -142.27)"/><path class="cls-2" d="M595.08,217.4h10.26a2.41,2.41,0,0,1,2.41,2.41v5.71a0,0,0,0,1,0,0H592.67a0,0,0,0,1,0,0v-5.71A2.41,2.41,0,0,1,595.08,217.4Z"/><path class="cls-5" d="M595.08,217.4h10.26a2.41,2.41,0,0,1,2.41,2.41v5.71a0,0,0,0,1,0,0H592.67a0,0,0,0,1,0,0v-5.71A2.41,2.41,0,0,1,595.08,217.4Z"/><path class="cls-3" d="M804,414.21v2.32a5.8,5.8,0,0,1-5.8,5.8H781.08a5.81,5.81,0,0,1-5.81-5.8v-2.32l-50-12.77H854Z" transform="translate(-189.41 -142.27)"/><path class="cls-5" d="M804,414.21v2.32a5.8,5.8,0,0,1-5.8,5.8H781.08a5.81,5.81,0,0,1-5.81-5.8v-2.32l-50-12.77H854Z" transform="translate(-189.41 -142.27)"/><path class="cls-2" d="M592.67,280.06h15.08a0,0,0,0,1,0,0v5.71a2.41,2.41,0,0,1-2.41,2.41H595.08a2.41,2.41,0,0,1-2.41-2.41v-5.71A0,0,0,0,1,592.67,280.06Z"/><path class="cls-5" d="M592.67,280.06h15.08a0,0,0,0,1,0,0v5.71a2.41,2.41,0,0,1-2.41,2.41H595.08a2.41,2.41,0,0,1-2.41-2.41v-5.71A0,0,0,0,1,592.67,280.06Z"/><polyline class="cls-5" points="242.52 494.73 203.07 456.44 163.62 494.73"/><polyline class="cls-5" points="217.42 470.36 203.07 484.29 188.72 470.36"/><line class="cls-5" x1="203.07" y1="125.73" x2="203.07" y2="490.09"/><path class="cls-3" d="M406.83,293.53v-2.32a5.8,5.8,0,0,0-5.8-5.8H383.94a5.79,5.79,0,0,0-5.8,5.8v2.32l-50.06,12.76h128.8Z" transform="translate(-189.41 -142.27)"/><path class="cls-5" d="M406.83,293.53v-2.32a5.8,5.8,0,0,0-5.8-5.8H383.94a5.79,5.79,0,0,0-5.8,5.8v2.32l-50.06,12.76h128.8Z" transform="translate(-189.41 -142.27)"/><path class="cls-2" d="M197.94,135H208.2a2.41,2.41,0,0,1,2.41,2.41v5.71a0,0,0,0,1,0,0H195.53a0,0,0,0,1,0,0v-5.71A2.41,2.41,0,0,1,197.94,135Z"/><path class="cls-5" d="M197.94,135H208.2a2.41,2.41,0,0,1,2.41,2.41v5.71a0,0,0,0,1,0,0H195.53a0,0,0,0,1,0,0v-5.71A2.41,2.41,0,0,1,197.94,135Z"/><rect class="cls-2" x="173.8" y="287.02" width="115.27" height="128.04" rx="5" ry="5"/><rect class="cls-2" x="173.79" y="287.02" width="115.27" height="128.04" rx="5.8" ry="5.8"/><path class="cls-3" d="M478.47,537.65v13.88a5.8,5.8,0,0,1-5.8,5.8H369a5.8,5.8,0,0,1-5.8-5.8V537.65Z" transform="translate(-189.41 -142.27)"/><path class="cls-4" d="M478.47,449V435.09a5.8,5.8,0,0,0-5.8-5.8H369a5.8,5.8,0,0,0-5.8,5.8V449Z" transform="translate(-189.41 -142.27)"/><rect class="cls-5" x="173.8" y="287.02" width="115.27" height="128.04" rx="5" ry="5"/><line class="cls-5" x1="170.99" y1="306.71" x2="291.88" y2="306.71"/><line class="cls-5" x1="170.99" y1="395.38" x2="291.88" y2="395.38"/><line class="cls-5" x1="206.13" y1="310.92" x2="206.13" y2="324.98"/><line class="cls-5" x1="256.74" y1="310.92" x2="256.74" y2="324.98"/><line class="cls-5" x1="206.13" y1="377.11" x2="206.13" y2="391.16"/><line class="cls-5" x1="256.74" y1="377.11" x2="256.74" y2="391.16"/><line class="cls-6" x1="185.08" y1="334.36" x2="185.08" y2="387.02"/><line class="cls-6" x1="185.08" y1="318.93" x2="185.08" y2="323.29"/><polyline class="cls-5" points="270.89 494.73 231.43 456.44 191.98 494.73"/><polyline class="cls-5" points="245.78 470.36 231.43 484.29 217.09 470.36"/><line class="cls-5" x1="231.43" y1="416.22" x2="231.43" y2="490.09"/><rect class="cls-2" x="496.38" y="287.02" width="115.27" height="93.22" rx="5" ry="5"/><rect class="cls-2" x="496.37" y="287.02" width="115.27" height="93.22" rx="5.8" ry="5.8"/><path class="cls-3" d="M801.06,502.84v13.88a5.8,5.8,0,0,1-5.8,5.8H691.59a5.8,5.8,0,0,1-5.8-5.8V502.84Z" transform="translate(-189.41 -142.27)"/><path class="cls-4" d="M801.06,449V435.09a5.8,5.8,0,0,0-5.8-5.8H691.59a5.8,5.8,0,0,0-5.8,5.8V449Z" transform="translate(-189.41 -142.27)"/><rect class="cls-5" x="496.38" y="287.02" width="115.27" height="93.22" rx="5" ry="5"/><line class="cls-5" x1="493.57" y1="306.71" x2="614.47" y2="306.71"/><line class="cls-5" x1="493.57" y1="360.57" x2="614.47" y2="360.57"/><line class="cls-5" x1="528.71" y1="310.92" x2="528.71" y2="324.98"/><line class="cls-5" x1="579.32" y1="310.92" x2="579.32" y2="324.98"/><line class="cls-5" x1="528.71" y1="342.29" x2="528.71" y2="356.35"/><line class="cls-5" x1="579.32" y1="342.29" x2="579.32" y2="356.35"/><line class="cls-6" x1="507.67" y1="334.36" x2="507.67" y2="352.21"/><line class="cls-6" x1="507.67" y1="318.93" x2="507.67" y2="323.29"/><polyline class="cls-5" points="593.47 494.73 554.02 456.44 514.57 494.73"/><polyline class="cls-5" points="568.36 470.36 554.02 484.29 539.67 470.36"/><line class="cls-5" x1="554.02" y1="381.41" x2="554.02" y2="490.09"/><line class="cls-5" x1="329.49" y1="476.17" x2="329.49" y2="490.09"/><line class="cls-5" x1="455.97" y1="476.17" x2="455.97" y2="490.09"/><circle class="cls-2" cx="582.14" cy="527.45" r="109.55" transform="translate(-391.87 423.85) rotate(-45)"/><circle class="cls-5" cx="582.14" cy="527.45" r="109.55" transform="translate(-391.87 423.85) rotate(-45)"/><path class="cls-6" d="M545.91,433.93a100.43,100.43,0,0,1,19.69-5.39" transform="translate(-189.41 -142.27)"/><path class="cls-6" d="M484.89,503a100.43,100.43,0,0,1,50.45-64.2" transform="translate(-189.41 -142.27)"/><circle class="cls-4" cx="392.73" cy="385.18" r="90.98"/><circle class="cls-5" cx="392.73" cy="385.18" r="90.98"/><g class="cls-8"><path class="cls-4" d="M233.68,243.5c-.13-.84-.26-1.69-.38-2.53q8.2-2.28,16.44-4.43c.44-25.93,4.18-38.25,12.7-42.94a82.84,82.84,0,0,1-14.19-2.44c-7.54-1.57-14.15-3.08-24.7-.2-17.77,4.87-26.65,20-21.73,36.18l-3.12.94c-5.47-17.8,4.41-34.59,24.07-40,11.49-3.13,18.65-1.46,26.38.21,9,2,18.18,4.15,36.17.1.21,1,.43,1.93.65,2.89-3.35.75-6.27,1.27-9.08,1.63-.69,1-6.83,10.41-9.19,39q7.8-1.92,15.64-3.74c.09.85.19,1.69.28,2.54q-8,1.88-16.05,3.85c-.34,4.3-.64,8.74-.64,13.68,0,26.13-3.53,51.05-32.1,59.28-22,6.46-40.86-6.24-45.42-25.72l3.27-1.05c4.63,19.43,22.25,29.5,41.32,23.93,15.66-4.54,16.43-25.44,15.83-56-.1-3.33-.16-6.52,0-9.62Q241.74,241.27,233.68,243.5Z" transform="translate(-189.41 -142.27)"/><path class="cls-4" d="M353.22,245.17a11,11,0,0,0,6.61-5.16l2.47,1.3a14.48,14.48,0,0,1-10,6.9c-8.4,1.5-13.91-1.46-15.94-8.11-2.1,5.71-6.22,12.25-14.16,13.87-12.38,2.54-22.53-3-25.64-16.73-4.87-21.46,5.23-36.51,22.85-40,8.17-1.61,13.33,1.61,16.46,6.77,0-2.72,0-5.17.12-8.64a131.48,131.48,0,0,0,18.43-4.53Q353.58,218,353.22,245.17Zm-17.69-13.25c.09-2.75,0-8.77.1-20.7-1.83-6.55-6.65-12.26-12.4-11.14-10.78,2.11-11.89,25.3-8.65,40.62,1.85,8.84,4.92,10.5,8.83,9.71C331.63,248.74,334.92,235.2,335.53,231.92Z" transform="translate(-189.41 -142.27)"/><path class="cls-4" d="M410,182.74a11,11,0,0,1,11.15,5.5.49.49,0,0,1,.19.26v.14c.94,1.46,2.41,5,3.23,12.28,1.31,12.11-3.79,36.91-27.69,40.19-12.63,1.77-22.4-5.35-24.17-16.37-1.87-11.71,1.88-22,.67-34.1-5.28,1.1-8.17,7.29-8.16,7.29l-2.54-1.31s2.8-7.63,13.16-9.2c9.15-1.38,14.27,3.06,15.3,10.47,1.3,9.5-3,22.08-1.49,32.28.67,4.61,4,8.25,9.43,7.5,12.91-1.79,23.92-19.39,22-36.36a20,20,0,0,0-.65-2.91,11.44,11.44,0,0,1-8,4.65c-6,.74-11.38-3.1-12.13-8.69S403.85,183.49,410,182.74Z" transform="translate(-189.41 -142.27)"/><path class="cls-4" d="M488.41,229a11,11,0,0,0,7.12-4.39l2.3,1.57a14.37,14.37,0,0,1-10.71,5.73c-8.48.54-13.6-3-14.87-9.86-2.72,5.44-7.53,11.47-15.56,12.19-12.55,1.12-22-5.49-23.51-19.53-2.42-21.87,9.25-35.68,27.08-37.15,8.27-.68,13,3.1,15.54,8.57.27-2.7.56-5.13,1.09-8.56a129.73,129.73,0,0,0,18.76-2.43Q491.81,202.09,488.41,229Zm-16-15.17c.39-2.71,1-8.7,2.41-20.55-1.09-6.71-5.22-12.93-11-12.47-10.91.88-14.6,23.8-13.1,39.38.84,9,3.69,11,7.64,10.65C466.63,230.13,471.4,217,472.38,213.85Z" transform="translate(-189.41 -142.27)"/><path class="cls-4" d="M534,205.57c-.21-8.75-2.9-13.77-4-20.51a40.67,40.67,0,0,1-20.36,11.45l-.15-3.38c9.57-2.4,16.81-9,20.09-12.29,0-.19,0-.38,0-.57a21.76,21.76,0,0,1,4-13.09l3.7-.08c.43,18.6,14.13,20.5,14.28,39.15.08,13.28-11.4,23.35-27.48,23.89-14,.47-21.63-7.13-22.08-15.46s5.42-11.58,10.52-11.79c6-.25,10.49,3.7,10.67,9.34a10,10,0,0,1-9.69,10.68,12.48,12.48,0,0,1-4-.4c2.35,3,6.52,4.24,10.49,4.1C530.23,226.24,534.32,219.12,534,205.57Z" transform="translate(-189.41 -142.27)"/><path class="cls-4" d="M604.65,181.87a8.93,8.93,0,0,1,3.48.68c-1.71-3.17-6.1-5.15-10.54-5.27-9.52-.26-20.53,10.2-20.74,36.6-.08,9,4.88,12.46,10.6,12.57,15.53.33,21.46-15.75,21.49-15.91l2.63,1.23s-4.75,18.32-27.41,17.87c-16.09-.25-24-8.19-24.11-20.48-.16-22.7,13.16-36,33.8-35.5,14.46.36,21.66,8.2,21.21,18.62-.31,7.19-6,10.2-11.08,10-6-.19-10.68-4.82-10.56-10.46S598.54,181.67,604.65,181.87Z" transform="translate(-189.41 -142.27)"/><path class="cls-4" d="M622.91,179.77a14.93,14.93,0,0,1,11.74-4.48c9.52.54,14.42,5.42,13.88,13.3l-.06.84c5.32-8.83,11.16-12.52,18.82-11.89,8,.66,11.48,4.4,10.75,12.27-1.06,11.07-14.94,18.09-15.62,27l-3.56-.28c.75-10.16,14.31-17,15.19-26.5.66-7.45-2.9-8.9-7-9.23-12.75-1-21.35,20.5-21.86,21.87v.14q-3.61,13.83-7.12,27.69-8.79-.54-17.6-1Q626.49,203.75,633,178a11.29,11.29,0,0,0-7.84,3.55Z" transform="translate(-189.41 -142.27)"/><path class="cls-4" d="M694.85,233.76a11,11,0,0,0,7.77-3.11l2,1.94a14.46,14.46,0,0,1-11.54,3.81c-9-1-13.55-6.33-12.91-13.08.42-4.36,2.23-9.29,3.86-15.08q3.69-12.33,7.49-24.64l-6.4-.64c.18-.83.36-1.66.55-2.5,2.19.22,4.38.43,6.57.66a129.57,129.57,0,0,0,18.92.8Q702.79,207.8,694.85,233.76Zm13.52-83.41c6.27.7,10.87,6,10.18,11.56s-6.31,9.46-12.46,8.77S695.47,165,696,159.38,702.1,149.64,708.37,150.35Z" transform="translate(-189.41 -142.27)"/><path class="cls-4" d="M731.28,238q-3.76,10.94-7.44,21.91-8.52-1.17-17.06-2.2Q718,221.83,730,186.12a11.34,11.34,0,0,0-8.11,2.93l-2.07-2a15,15,0,0,1,12.08-3.56c9,1.21,13.58,6.18,13,13.5,3.9-4.56,10-9.23,18.57-7.86,14,2.25,19.88,11.52,17.71,23.59-4.07,22.37-20.38,32.57-39.65,29.71C736.26,241.69,733.11,239.82,731.28,238Zm1.81-5.45c.71,2.38,2.47,5.76,8.45,6.64,9.42,1.4,20.2-14.27,23.65-35,1.46-8.91-.14-11.46-4.24-12.11-9.91-1.57-18.47,13.76-18.46,13.89l-.15,0Q737.65,219.24,733.09,232.55Z" transform="translate(-189.41 -142.27)"/><path class="cls-4" d="M819.25,200.69q9.36,1.94,18.7,4c-.29.81-.57,1.61-.86,2.41q-9.39-2.09-18.8-4c-7.17,16.39-15.13,36.39-16.15,41.51-.58,2.9,1,4.8,3.61,5.33,7.8,1.59,15.7-8.38,19.28-15.55l2.46,1.41c-5.53,11.07-13.74,19.78-26.86,17.14-9-1.79-15.26-8.12-13.65-16.86,1.19-6.39,6.42-19.91,13.21-36.57-2.47-.48-4.93-.94-7.4-1.4.25-.81.51-1.62.76-2.44,2.58.48,5.15,1,7.72,1.46,2.46-6.29,5.29-12.78,8.08-19.71A135.42,135.42,0,0,0,828.5,180S824.3,189.2,819.25,200.69Z" transform="translate(-189.41 -142.27)"/><path class="cls-4" d="M817.61,265.69l3,.79c-1.66,7.58,4.63,11.42,10.71,12.83,12.69,2.95,21.57-5,24.84-18,2.12-8.49.32-14.32-4.35-15.46-1.16-.28-4.14-.7-4.14-.7-.08-1-.15-2-.23-3,13-1,21.39-1.84,24.79-15.11,1.86-7.25-3.42-11.5-7.8-12.43-7.8-1.92-16.5,5.62-16.7,5.86l-2.24-1.82c.39-.46,10.77-11.21,29.57-6.47,9.31,2.37,13.45,7.89,11.51,15.1-3,11-18.52,15.23-29.83,16.69,3.88,1.24,7.87,3.26,10.32,6.37,2.82,3.49,3.59,8.21,2.24,13.4-4.17,15.67-23.3,21.77-38.62,18.26C821.78,280,815.57,275.21,817.61,265.69Z" transform="translate(-189.41 -142.27)"/><path class="cls-4" d="M888.23,252.51c6-22.69,33.36-28.81,45.32-25.06l-.87,2.83c-10-3.06-23.46,10.69-28.23,27.38-3.16,11,.9,15.68,7.3,17.6,9.79,2.9,27.8-5.41,32.38-19.34,2.3-7.11,0-12.92-6.07-14.81-3.53-1.11-6.95-1-9.33.51-5.22,2.39-7,9.38-7,9.38l-2.91-.88c.08-.27,2.33-7.85,8.24-10.93a16,16,0,0,1,11.8-.64c7.82,2.45,10.87,9.55,8,18.26-4.2,12.61-23.53,27.27-44.31,21.18C891.24,274.67,885.13,264,888.23,252.51Z" transform="translate(-189.41 -142.27)"/></g><path class="cls-9" d="M233.68,235.5c-.13-.84-.26-1.69-.38-2.53q8.2-2.28,16.44-4.43c.44-25.93,4.18-38.25,12.7-42.94a82.84,82.84,0,0,1-14.19-2.44c-7.54-1.57-14.15-3.08-24.7-.2-17.77,4.87-26.65,20-21.73,36.18l-3.12.94c-5.47-17.8,4.41-34.59,24.07-40,11.49-3.13,18.65-1.46,26.38.21,9,2,18.18,4.15,36.17.1.21,1,.43,1.93.65,2.89-3.35.75-6.27,1.27-9.08,1.63-.69,1-6.83,10.41-9.19,39q7.8-1.92,15.64-3.74c.09.85.19,1.69.28,2.54q-8,1.88-16.05,3.85c-.34,4.3-.64,8.74-.64,13.68,0,26.13-3.53,51.05-32.1,59.28-22,6.46-40.86-6.24-45.42-25.72l3.27-1.05c4.63,19.43,22.25,29.5,41.32,23.93,15.66-4.54,16.43-25.44,15.83-56-.1-3.33-.16-6.52,0-9.62Q241.74,233.27,233.68,235.5Z" transform="translate(-189.41 -142.27)"/><path class="cls-9" d="M353.22,237.17a11,11,0,0,0,6.61-5.16l2.47,1.3a14.48,14.48,0,0,1-10,6.9c-8.4,1.5-13.91-1.46-15.94-8.11-2.1,5.71-6.22,12.25-14.16,13.87-12.38,2.54-22.53-3-25.64-16.73-4.87-21.46,5.23-36.51,22.85-40,8.17-1.61,13.33,1.61,16.46,6.77,0-2.72,0-5.17.12-8.64a131.48,131.48,0,0,0,18.43-4.53Q353.58,210,353.22,237.17Zm-17.69-13.25c.09-2.75,0-8.77.1-20.7-1.83-6.55-6.65-12.26-12.4-11.14-10.78,2.11-11.89,25.3-8.65,40.62,1.85,8.84,4.92,10.5,8.83,9.71C331.63,240.74,334.92,227.2,335.53,223.92Z" transform="translate(-189.41 -142.27)"/><path class="cls-9" d="M410,174.74a11,11,0,0,1,11.15,5.5.49.49,0,0,1,.19.26v.14c.94,1.46,2.41,5,3.23,12.28,1.31,12.11-3.79,36.91-27.69,40.19-12.63,1.77-22.4-5.35-24.17-16.37-1.87-11.71,1.88-22,.67-34.1-5.28,1.1-8.17,7.29-8.16,7.29l-2.54-1.31s2.8-7.63,13.16-9.2c9.15-1.38,14.27,3.06,15.3,10.47,1.3,9.5-3,22.08-1.49,32.28.67,4.61,4,8.25,9.43,7.5,12.91-1.79,23.92-19.39,22-36.36a20,20,0,0,0-.65-2.91,11.44,11.44,0,0,1-8,4.65c-6,.74-11.38-3.1-12.13-8.69S403.85,175.49,410,174.74Z" transform="translate(-189.41 -142.27)"/><path class="cls-9" d="M488.41,221a11,11,0,0,0,7.12-4.39l2.3,1.57a14.37,14.37,0,0,1-10.71,5.73c-8.48.54-13.6-3-14.87-9.86-2.72,5.44-7.53,11.47-15.56,12.19-12.55,1.12-22-5.49-23.51-19.53-2.42-21.87,9.25-35.68,27.08-37.15,8.27-.68,13,3.1,15.54,8.57.27-2.7.56-5.13,1.09-8.56a129.73,129.73,0,0,0,18.76-2.43Q491.81,194.09,488.41,221Zm-16-15.17c.39-2.71,1-8.7,2.41-20.55-1.09-6.71-5.22-12.93-11-12.47-10.91.88-14.6,23.8-13.1,39.38.84,9,3.69,11,7.64,10.65C466.63,222.13,471.4,209,472.38,205.85Z" transform="translate(-189.41 -142.27)"/><path class="cls-9" d="M534,197.57c-.21-8.75-2.9-13.77-4-20.51a40.67,40.67,0,0,1-20.36,11.45l-.15-3.38c9.57-2.4,16.81-9,20.09-12.29,0-.19,0-.38,0-.57a21.76,21.76,0,0,1,4-13.09l3.7-.08c.43,18.6,14.13,20.5,14.28,39.15.08,13.28-11.4,23.35-27.48,23.89-14,.47-21.63-7.13-22.08-15.46s5.42-11.58,10.52-11.79c6-.25,10.49,3.7,10.67,9.34a10,10,0,0,1-9.69,10.68,12.48,12.48,0,0,1-4-.4c2.35,3,6.52,4.24,10.49,4.1C530.23,218.24,534.32,211.12,534,197.57Z" transform="translate(-189.41 -142.27)"/><path class="cls-9" d="M604.65,173.87a8.93,8.93,0,0,1,3.48.68c-1.71-3.17-6.1-5.15-10.54-5.27-9.52-.26-20.53,10.2-20.74,36.6-.08,9,4.88,12.46,10.6,12.57,15.53.33,21.46-15.75,21.49-15.91l2.63,1.23s-4.75,18.32-27.41,17.87c-16.09-.25-24-8.19-24.11-20.48-.16-22.7,13.16-36,33.8-35.5,14.46.36,21.66,8.2,21.21,18.62-.31,7.19-6,10.2-11.08,10-6-.19-10.68-4.82-10.56-10.46S598.54,173.67,604.65,173.87Z" transform="translate(-189.41 -142.27)"/><path class="cls-9" d="M622.91,171.77a14.93,14.93,0,0,1,11.74-4.48c9.52.54,14.42,5.42,13.88,13.3l-.06.84c5.32-8.83,11.16-12.52,18.82-11.89,8,.66,11.48,4.4,10.75,12.27-1.06,11.07-14.94,18.09-15.62,27l-3.56-.28c.75-10.16,14.31-17,15.19-26.5.66-7.45-2.9-8.9-7-9.23-12.75-1-21.35,20.5-21.86,21.87v.14q-3.61,13.83-7.12,27.69-8.79-.54-17.6-1Q626.49,195.75,633,170a11.29,11.29,0,0,0-7.84,3.55Z" transform="translate(-189.41 -142.27)"/><path class="cls-9" d="M694.85,225.76a11,11,0,0,0,7.77-3.11l2,1.94a14.46,14.46,0,0,1-11.54,3.81c-9-1-13.55-6.33-12.91-13.08.42-4.36,2.23-9.29,3.86-15.08q3.69-12.33,7.49-24.64l-6.4-.64c.18-.83.36-1.66.55-2.5,2.19.22,4.38.43,6.57.66a129.57,129.57,0,0,0,18.92.8Q702.79,199.8,694.85,225.76Zm13.52-83.41c6.27.7,10.87,6,10.18,11.56s-6.31,9.46-12.46,8.77S695.47,157,696,151.38,702.1,141.64,708.37,142.35Z" transform="translate(-189.41 -142.27)"/><path class="cls-9" d="M731.28,230q-3.76,10.94-7.44,21.91-8.52-1.17-17.06-2.2Q718,213.83,730,178.12a11.34,11.34,0,0,0-8.11,2.93l-2.07-2a15,15,0,0,1,12.08-3.56c9,1.21,13.58,6.18,13,13.5,3.9-4.56,10-9.23,18.57-7.86,14,2.25,19.88,11.52,17.71,23.59-4.07,22.37-20.38,32.57-39.65,29.71C736.26,233.69,733.11,231.82,731.28,230Zm1.81-5.45c.71,2.38,2.47,5.76,8.45,6.64,9.42,1.4,20.2-14.27,23.65-35,1.46-8.91-.14-11.46-4.24-12.11-9.91-1.57-18.47,13.76-18.46,13.89l-.15,0Q737.65,211.24,733.09,224.55Z" transform="translate(-189.41 -142.27)"/><path class="cls-9" d="M819.25,192.69q9.36,1.94,18.7,4c-.29.81-.57,1.61-.86,2.41q-9.39-2.09-18.8-4c-7.17,16.39-15.13,36.39-16.15,41.51-.58,2.9,1,4.8,3.61,5.33,7.8,1.59,15.7-8.38,19.28-15.55l2.46,1.41c-5.53,11.07-13.74,19.78-26.86,17.14-9-1.79-15.26-8.12-13.65-16.86,1.19-6.39,6.42-19.91,13.21-36.57-2.47-.48-4.93-.94-7.4-1.4.25-.81.51-1.62.76-2.44,2.58.48,5.15,1,7.72,1.46,2.46-6.29,5.29-12.78,8.08-19.71A135.42,135.42,0,0,0,828.5,172S824.3,181.2,819.25,192.69Z" transform="translate(-189.41 -142.27)"/><path class="cls-9" d="M817.61,257.69l3,.79c-1.66,7.58,4.63,11.42,10.71,12.83,12.69,2.95,21.57-5,24.84-18,2.12-8.49.32-14.32-4.35-15.46-1.16-.28-4.14-.7-4.14-.7-.08-1-.15-2-.23-3,13-1,21.39-1.84,24.79-15.11,1.86-7.25-3.42-11.5-7.8-12.43-7.8-1.92-16.5,5.62-16.7,5.86l-2.24-1.82c.39-.46,10.77-11.21,29.57-6.47,9.31,2.37,13.45,7.89,11.51,15.1-3,11-18.52,15.23-29.83,16.69,3.88,1.24,7.87,3.26,10.32,6.37,2.82,3.49,3.59,8.21,2.24,13.4-4.17,15.67-23.3,21.77-38.62,18.26C821.78,272,815.57,267.21,817.61,257.69Z" transform="translate(-189.41 -142.27)"/><path class="cls-9" d="M888.23,244.51c6-22.69,33.36-28.81,45.32-25.06l-.87,2.83c-10-3.06-23.46,10.69-28.23,27.38-3.16,11,.9,15.68,7.3,17.6,9.79,2.9,27.8-5.41,32.38-19.34,2.3-7.11,0-12.92-6.07-14.81-3.53-1.11-6.95-1-9.33.51-5.22,2.39-7,9.38-7,9.38l-2.91-.88c.08-.27,2.33-7.85,8.24-10.93a16,16,0,0,1,11.8-.64c7.82,2.45,10.87,9.55,8,18.26-4.2,12.61-23.53,27.27-44.31,21.18C891.24,266.67,885.13,256,888.23,244.51Z" transform="translate(-189.41 -142.27)"/><path class="cls-9" d="M587.09,518.73c.29-.09.44,0,.44.24a1.9,1.9,0,0,1-.29.75,4.39,4.39,0,0,1-.56.83,8,8,0,0,1-2.9,1.44,20.79,20.79,0,0,1-5.39.57l-3.11.07-2.78,8.27,1.4.05h2.63a33.92,33.92,0,0,0,3.55-.13,18.49,18.49,0,0,0,3.11-.74c.29-.09.44,0,.44.23a1.93,1.93,0,0,1-.29.76,4.29,4.29,0,0,1-.55.82,7.8,7.8,0,0,1-2.89,1.45,20.57,20.57,0,0,1-5.37.57l-3.09.07c-.36,1-.65,1.76-.87,2.38-.68,1.8-1.35,3.53-2,5.21a27.1,27.1,0,0,1-2.32,4.72,7.63,7.63,0,0,1-2.26,2.27,6.45,6.45,0,0,1-.77.27,2.69,2.69,0,0,1-.74.1c-.34,0-.5-.09-.5-.27l.13-.3a21.54,21.54,0,0,0,2.08-3.7c.38-.87,1-2.39,1.75-4.57.43-1.18.91-2.63,1.45-4.33l.57-1.78h-8.39l-.84,2.38q-1,2.76-2,5.21a27.1,27.1,0,0,1-2.32,4.72,7.6,7.6,0,0,1-2.25,2.27,7.27,7.27,0,0,1-.78.27,2.64,2.64,0,0,1-.74.1c-.33,0-.5-.09-.5-.27l.13-.3a21.6,21.6,0,0,0,2.09-3.7q.57-1.3,1.74-4.57c.43-1.18.91-2.63,1.45-4.33l.57-1.78-1.4,0-1.49,0h-3.13a19.47,19.47,0,0,0-4.67.87c-.29.09-.43,0-.43-.23a1.87,1.87,0,0,1,.28-.76,4.62,4.62,0,0,1,.56-.82,8.11,8.11,0,0,1,2.89-1.45,20.73,20.73,0,0,1,5.39-.57l3-.06,3-8.27-1.39,0-1.5,0h-3.12a19,19,0,0,0-4.67.88c-.3.09-.44,0-.44-.24a1.79,1.79,0,0,1,.28-.75,4.39,4.39,0,0,1,.56-.83,7.93,7.93,0,0,1,2.89-1.44,20.7,20.7,0,0,1,5.38-.57l3-.07c.34-1,.61-1.76.84-2.39q1-2.74,2-5.21a28.24,28.24,0,0,1,2.32-4.72,7.56,7.56,0,0,1,2.25-2.26,3.53,3.53,0,0,1,1.51-.34q.54,0,.54.24l-.17.3a22.49,22.49,0,0,0-2.07,3.69c-.38.88-1,2.4-1.75,4.57-.43,1.19-.91,2.64-1.44,4.34-.16.47-.35,1.06-.58,1.78H573c.33-1,.61-1.76.84-2.39q1-2.74,2-5.21a27.47,27.47,0,0,1,2.32-4.72,7.56,7.56,0,0,1,2.25-2.26,3.53,3.53,0,0,1,1.51-.34q.54,0,.54.24l-.17.3a21.78,21.78,0,0,0-2.07,3.69q-.58,1.32-1.75,4.57c-.43,1.19-.91,2.64-1.45,4.34l-.57,1.78,1.4.05,1.49,0h1.14a33.2,33.2,0,0,0,3.54-.14A17.55,17.55,0,0,0,587.09,518.73Zm-15.19,3.9h-8.34l-2.94,8.27H569Z" transform="translate(-189.41 -142.27)"/><path class="cls-9" d="M606.5,547.56H594.06l12.44-35.74L599,513.4l-.53-2.11L622,506.55Z" transform="translate(-189.41 -142.27)"/></g></g></svg>